<svg xmlns="http://www.w3.org/2000/svg" version="1.1" xmlns:xlink="http://www.w3.org/1999/xlink" xmlns:svgjs="http://svgjs.dev/svgjs" width="100%" height="100%" viewBox="0 0 1000 600"><rect width="1000" height="600" x="0" y="0" fill="#008080"/><g><rect width="333.3333333333333" height="333.3333333333333" rx="13.333333333333334" ry="13.333333333333334" y="416.3967874349083" fill="#f2f2f2" transform="matrix(0.3171184176121293,0,0,0.3171184176121293,0,115.09985107659412)" x="394.1747131347656"/><path d="M511.3944828987785 658.0634515200907L511.3944828987785 658.0634515200907Q483.74923448294567 658.0634515200907 468.3683186106713 639.2773797886634Q453.0162599914405 620.4624508041927 453.0162599914405 583.9003111978668L453.0162599914405 583.9003111978668Q453.0162599914405 547.338171591541 468.3683186106713 527.686382268804Q483.74923448294567 508.0634501991105 511.3944828987785 508.0634501991105L511.3944828987785 508.0634501991105Q529.6611240754196 508.0634501991105 542.0408856311527 516.3743390756865Q554.3917899338421 524.6852279522625 561.2598161582348 539.8641430532314L561.2598161582348 539.8641430532314L547.1197621668381 548.3770327011131Q542.7623169572444 537.1515612671267 533.8165685137076 530.3989640549087Q524.8996773232146 523.6463668426907 511.3944828987785 523.6463668426907L511.3944828987785 523.6463668426907Q502.0447329126305 523.6463668426907 494.6572761334518 527.1669517140178Q487.2986766073167 530.716393838389 482.1909428185877 537.2669902793014Q477.11206628290233 543.78872946717 474.39948449679764 552.8499069228815Q471.7157599637366 561.8822271255492 471.7157599637366 573.1076985595355L471.7157599637366 573.1076985595355L471.7157599637366 594.6929238361984Q471.7157599637366 617.1438667041712 482.1043710594567 629.8122007903407Q492.4929821551767 642.4805348765105 511.3944828987785 642.4805348765105L511.3944828987785 642.4805348765105Q525.303678865826 642.4805348765105 534.653428851974 635.3239361216813Q544.003178838122 628.1673373668518 548.3606240477158 616.3070063659047L548.3606240477158 616.3070063659047L562.2986772678069 625.0507540381359Q555.4306510434142 640.4028126573664 542.5603161859387 649.2331320887286Q529.6611240754196 658.0634515200907 511.3944828987785 658.0634515200907ZM627.5449263995375 658.0634515200907L627.5449263995375 658.0634515200907Q616.3194549655511 658.0634515200907 607.3737065220145 654.138865106152Q598.4568153315214 650.1854214391697 592.3102204332204 642.9133936721655Q586.192482787963 635.6413659051616 582.9604704470723 625.2527548094415Q579.7573153592252 614.8641437137214 579.7573153592252 601.9649516032023L579.7573153592252 601.9649516032023Q579.7573153592252 589.0946167457269 582.9604704470723 578.7060056500068Q586.192482787963 568.3173945542869 592.3102204332204 561.0453667872828Q598.4568153315214 553.7733390202787 607.3737065220145 549.8198953532964Q616.3194549655511 545.866451686314 627.5449263995375 545.866451686314L627.5449263995375 545.866451686314Q643.531844585729 545.866451686314 653.1990243553573 552.8499069228815Q662.8662041249858 559.8045049064051 667.6276508771907 571.0299763403914L667.6276508771907 571.0299763403914L653.7184549101435 578.0711460830462Q650.8038723527329 569.7602572064702 644.1667041526896 565.2008112255708Q637.5006786996026 560.6413652446715 627.5449263995375 560.6413652446715L627.5449263995375 560.6413652446715Q620.0420406081842 560.6413652446715 614.4437335177128 563.0076599942522Q608.8454264272415 565.4028119968765 605.0939835315647 569.673685447339Q601.3425406358881 573.9157016447582 599.4956764410933 579.8602957717535Q597.6199549932551 585.7760326457053 597.6199549932551 592.8460596414036L597.6199549932551 592.8460596414036L597.6199549932551 611.1127008180447Q597.6199549932551 625.2527548094415 605.2094125437394 634.2850750121092Q612.7700128411801 643.317395214777 627.5449263995375 643.317395214777L627.5449263995375 643.317395214777Q647.687289024017 643.317395214777 656.6330374675538 624.6178952424807L656.6330374675538 624.6178952424807L668.6665119867628 632.7267833477513Q663.4722064389027 644.3562563243488 653.1990243553573 651.2242825487417Q642.8969850187683 658.0634515200907 627.5449263995375 658.0634515200907Z " fill="#008080" transform="matrix(0.3171184176121293,0,0,0.3171184176121293,0,115.09985107659412)"/><path d="M855.1147952817078 626.5490049069851L855.1147952817078 626.5490049069851Q834.1489362095575 626.5490049069851 822.4842150347599 612.3018501512754Q810.841378890309 598.0328103652191 810.841378890309 570.3044769159346L810.841378890309 570.3044769159346Q810.841378890309 542.5761434666504 822.4842150347599 527.6724378005392Q834.1489362095575 512.7906171647751 855.1147952817078 512.7906171647751L855.1147952817078 512.7906171647751Q868.9680194911766 512.7906171647751 878.3566975099162 519.093505904628Q887.723490498309 525.3963946444812 892.9321277208265 536.9079206068518L892.9321277208265 536.9079206068518L882.2084628509376 543.3640045591319Q878.903823268584 534.850727754261 872.1194638611032 529.7296306531302Q865.3569894839691 524.6085335519996 855.1147952817078 524.6085335519996L855.1147952817078 524.6085335519996Q848.024045449373 524.6085335519996 842.4214776806148 527.2785072542986Q836.840794942203 529.970365986944 832.967144570835 534.9382678756479Q829.1153792298137 539.8842847340047 827.0581863772227 546.7561842628724Q825.0228785549784 553.6061987613933 825.0228785549784 562.1194755662643L825.0228785549784 562.1194755662643L825.0228785549784 578.4894782656052Q825.0228785549784 595.5160318753472 832.9014894797949 605.1235601975538Q840.7801004046113 614.7310885197605 855.1147952817078 614.7310885197605L855.1147952817078 614.7310885197605Q865.6633799088231 614.7310885197605 872.7541297411578 609.303600993776Q879.8448795734927 603.8761134677914 883.1495191558462 594.8813659952925L883.1495191558462 594.8813659952925L893.7199888133082 601.5125301903463Q888.5113515907907 613.1553663347972 878.750628056157 619.8521856208911Q868.9680194911766 626.5490049069851 855.1147952817078 626.5490049069851ZM979.1153772261794 624.6668922971678L972.0246273938446 624.6668922971678Q964.9338775615098 624.6668922971678 961.8699733129702 620.8807820471866Q958.7841840340836 617.0946717972054 957.9963229416021 611.426448937407L957.9963229416021 611.426448937407L957.2084618491203 611.426448937407Q954.5384881468215 618.9986694373695 948.3887946193954 622.7847796873507Q942.2391010919692 626.5490049069851 933.7477093174449 626.5490049069851L933.7477093174449 626.5490049069851Q920.8136563825379 626.5490049069851 913.657251459163 619.9397257422781Q906.4789615054415 613.3304465775709 906.4789615054415 601.9721158276272L906.4789615054415 601.9721158276272Q906.4789615054415 590.4824748956034 914.9046981889256 584.3327813681772Q923.3304348724098 578.1830878407511 941.1448495746336 578.1830878407511L941.1448495746336 578.1830878407511L957.2084618491203 578.1830878407511L957.2084618491203 570.1512817035077Q957.2084618491203 561.4848096862097 952.4812952942306 556.9108383437468Q947.7541287393407 552.336867001284 937.9934052047071 552.336867001284L937.9934052047071 552.336867001284Q930.5962649475183 552.336867001284 925.6283630588147 555.6415065836375Q920.6604611701109 558.9680311963377 917.3558215877574 564.4830588437093L917.3558215877574 564.4830588437093L909.783601087795 557.3923090113746Q913.0882406701485 550.7611448163207 920.354070745257 546.1215183828177Q927.5980157900187 541.460006918968 938.6280710847617 541.460006918968L938.6280710847617 541.460006918968Q953.4442366294859 541.460006918968 961.6292379791562 548.7258369940764Q969.8142393288266 555.9697820388383 969.8142393288266 568.8819499433985L969.8142393288266 568.8819499433985L969.8142393288266 613.636837002425L979.1153772261794 613.636837002425L979.1153772261794 624.6668922971678ZM935.7830171396892 615.8472250674429L935.7830171396892 615.8472250674429Q940.5101836945789 615.8472250674429 944.4494891569872 614.7310885197605Q948.3887946193954 613.636837002425 951.233848564468 611.5796441498339Q954.0570174791939 609.5443363275897 955.6327396641572 606.852477594944Q957.2084618491203 604.1825038926452 957.2084618491203 601.0310595227186L957.2084618491203 601.0310595227186L957.2084618491203 587.6374209505309L940.5101836945789 587.6374209505309Q929.633323612263 587.6374209505309 924.687306753906 590.7888653204573Q919.7194048652024 593.9403096903839 919.7194048652024 599.936808005383L919.7194048652024 599.936808005383L919.7194048652024 603.2414475877365Q919.7194048652024 609.2160608723891 924.0526408738514 612.5425854850894Q928.3858768825004 615.8472250674429 935.7830171396892 615.8472250674429ZM997.08298714083 624.6668922971678L997.08298714083 508.06345060988514L1009.6887646205364 508.06345060988514L1009.6887646205364 556.6044479188929L1010.323430500591 556.6044479188929Q1013.3216796580906 549.6668932989851 1018.7491671840752 545.5743926241499Q1024.1766547100597 541.460006918968 1033.3245973949856 541.460006918968L1033.3245973949856 541.460006918968Q1045.9303748746918 541.460006918968 1053.2618600408405 549.5793531775983Q1060.593345206989 557.6986994362285 1060.593345206989 572.5148649809526L1060.593345206989 572.5148649809526L1060.593345206989 624.6668922971678L1047.9875677272828 624.6668922971678L1047.9875677272828 574.7252530459705Q1047.9875677272828 552.8183376689117 1029.5384871450042 552.8183376689117L1029.5384871450042 552.8183376689117Q1025.7523768950232 552.8183376689117 1022.2070019788557 553.7593939738204Q1018.6616270626884 554.7004502787289 1015.8384581479625 556.6044479188929Q1012.9934042028899 558.4865605287101 1011.3520269268864 561.3972695648229Q1009.6887646205364 564.3079786009356 1009.6887646205364 568.2472840633438L1009.6887646205364 568.2472840633438L1009.6887646205364 624.6668922971678L997.08298714083 624.6668922971678ZM1117.1442636228933 626.5490049069851L1117.1442636228933 626.5490049069851Q1108.806067060796 626.5490049069851 1102.109247774702 623.5726407798322Q1095.4124284886082 620.5743916223328 1090.5977218123314 614.9718238535743Q1085.8049001664015 609.3911411151628 1083.2005815551427 601.5781852813864Q1080.5962629438839 593.787114477957 1080.5962629438839 584.0045059129766L1080.5962629438839 584.0045059129766Q1080.5962629438839 574.3969775907699 1083.2005815551427 566.5183666659535Q1085.8049001664015 558.6397557411372 1090.5977218123314 553.0590730027254Q1095.4124284886082 547.4565052339672 1102.109247774702 544.4582560764676Q1108.806067060796 541.460006918968 1117.1442636228933 541.460006918968L1117.1442636228933 541.460006918968Q1125.3511500029103 541.460006918968 1131.8072339551904 544.4582560764676Q1138.2633179074705 547.4565052339672 1142.8372892499335 552.7307975475248Q1147.4112605923965 558.0050898610825 1149.8404989608814 565.2709199361909Q1152.2916223597133 572.5148649809526 1152.2916223597133 581.1813369982506L1152.2916223597133 581.1813369982506L1152.2916223597133 587.1559502829032L1093.8367063036449 587.1559502829032L1093.8367063036449 590.9420605328844Q1093.8367063036449 596.1506977554018 1095.4780835796482 600.6371289764779Q1097.1413458859984 605.1235601975538 1100.2052501345381 608.4281997799073Q1103.2910394134246 611.7547243926076 1107.7774706345006 613.636837002425Q1112.2639018555765 615.5189496122421 1117.932124715375 615.5189496122421L1117.932124715375 615.5189496122421Q1125.6575404277644 615.5189496122421 1131.4133034089498 611.9079196050347Q1137.169066390135 608.2750045674804 1140.3205107600616 601.5125301903463L1140.3205107600616 601.5125301903463L1149.2933732022136 607.9686141426264Q1145.3540677398055 616.3068107047238 1137.015871177708 621.4279078058544Q1128.655789585264 626.5490049069851 1117.1442636228933 626.5490049069851ZM1117.1442636228933 552.03047657643L1117.1442636228933 552.03047657643Q1111.9575114307227 552.03047657643 1107.6899305131137 553.8469340952072Q1103.4442346258515 555.6415065836375 1100.3803303773118 558.9680311963377Q1097.2945410984253 562.2726707786913 1095.565623701035 566.7591019997674Q1093.8367063036449 571.2455332208433 1093.8367063036449 576.6073656557878L1093.8367063036449 576.6073656557878L1093.8367063036449 577.7016171731234L1138.7447885750985 577.7016171731234L1138.7447885750985 575.9726997757332Q1138.7447885750985 565.0958396934172 1132.8358303814862 558.574100650097Q1126.9268721878739 552.03047657643 1117.1442636228933 552.03047657643ZM1185.6881786687961 624.6668922971678L1173.0824011890898 624.6668922971678L1173.0824011890898 543.3640045591319L1185.6881786687961 543.3640045591319L1185.6881786687961 558.3333653162831L1186.4760397612777 558.3333653162831Q1188.6864278262956 552.490062213711 1194.3546506860941 547.9379759015949Q1200.0447585762392 543.3640045591319 1209.9586773233 543.3640045591319L1209.9586773233 543.3640045591319L1214.8390390906168 543.3640045591319L1214.8390390906168 555.9697820388383L1207.441898833428 555.9697820388383Q1197.1997046311667 555.9697820388383 1191.4439416499813 559.8215473798596Q1185.6881786687961 563.6951977512276 1185.6881786687961 569.5166158234531L1185.6881786687961 569.5166158234531L1185.6881786687961 624.6668922971678ZM1230.9245363954503 624.6668922971678L1230.9245363954503 508.06345060988514L1243.5303138751565 508.06345060988514L1243.5303138751565 556.6044479188929L1244.164979755211 556.6044479188929Q1247.141343882364 549.6668932989851 1252.5907164386954 545.5743926241499Q1258.01820396468 541.460006918968 1267.1661466496057 541.460006918968L1267.1661466496057 541.460006918968Q1279.771924129312 541.460006918968 1287.1034092954606 549.5793531775983Q1294.4130094312625 557.6986994362285 1294.4130094312625 572.5148649809526L1294.4130094312625 572.5148649809526L1294.4130094312625 624.6668922971678L1281.8072319515563 624.6668922971678L1281.8072319515563 574.7252530459705Q1281.8072319515563 552.8183376689117 1263.3800363996245 552.8183376689117L1263.3800363996245 552.8183376689117Q1259.5939261496433 552.8183376689117 1256.048551233476 553.7593939738204Q1252.5031763173085 554.7004502787289 1249.6800074025828 556.6044479188929Q1246.83495345751 558.4865605287101 1245.1716911511598 561.3972695648229Q1243.5303138751565 564.3079786009356 1243.5303138751565 568.2472840633438L1243.5303138751565 568.2472840633438L1243.5303138751565 624.6668922971678L1230.9245363954503 624.6668922971678ZM1370.5291449771275 624.6668922971678L1370.5291449771275 611.426448937407L1369.894479097073 611.426448937407Q1368.6470323673102 614.2715028824796 1366.8305748485332 617.0290167061653Q1365.0141173297561 619.786530529851 1362.3441436274572 621.9093784734821Q1359.6522848948116 624.0322264171132 1355.8661746448306 625.3015581772224Q1352.101949425196 626.5490049069851 1347.0465074151052 626.5490049069851L1347.0465074151052 626.5490049069851Q1334.440729935399 626.5490049069851 1327.0435896782105 618.4515436787017Q1319.624564390675 610.3321974200715 1319.624564390675 595.5160318753472L1319.624564390675 595.5160318753472L1319.624564390675 543.3640045591319L1332.2303418703812 543.3640045591319L1332.2303418703812 593.3056438103292Q1332.2303418703812 615.2125591873883 1350.8326176650867 615.2125591873883L1350.8326176650867 615.2125591873883Q1354.618727915068 615.2125591873883 1358.1641028312351 614.2715028824796Q1361.7094777474026 613.3304465775709 1364.4669915710883 611.426448937407Q1367.224505394774 609.5443363275897 1368.8658826707774 606.6336272914771Q1370.5291449771275 603.7010332250175 1370.5291449771275 599.6085325501824L1370.5291449771275 599.6085325501824L1370.5291449771275 543.3640045591319L1383.134922456834 543.3640045591319L1383.134922456834 624.6668922971678L1370.5291449771275 624.6668922971678ZM1478.4661146471124 633.6397547393199L1478.4661146471124 633.6397547393199Q1478.4661146471124 646.245532219026 1468.6178509910917 652.1544904126383Q1458.7695873350713 658.0634486062506 1439.0730600230302 658.0634486062506L1439.0730600230302 658.0634486062506Q1420.011198591044 658.0634486062506 1411.6511169985997 652.87669641408Q1403.3129204365025 647.6680591915624 1403.3129204365025 638.0605308693557L1403.3129204365025 638.0605308693557Q1403.3129204365025 631.4512517046487 1406.7707552312831 627.7307965457076Q1410.2285900260636 624.0322264171132 1416.225088341063 622.303309019723L1416.225088341063 622.303309019723L1416.225088341063 620.5743916223328Q1408.981143296301 617.0946717972054 1408.981143296301 609.2160608723891L1408.981143296301 609.2160608723891Q1408.981143296301 603.0882523753096 1412.9204487587092 599.8492678839962Q1416.8597542211173 596.6102833926827 1423.0094477485434 595.0345612077194L1423.0094477485434 595.0345612077194L1423.0094477485434 594.4217803580116Q1415.743617673435 590.9420605328844 1411.7386571199868 584.4859765806043Q1407.7118115361918 578.0298926283242 1407.7118115361918 569.5166158234531L1407.7118115361918 569.5166158234531Q1407.7118115361918 563.3669222960269 1409.9221996012097 558.1801701038562Q1412.1325876662277 552.9715328813386 1416.1375482196759 549.2729627527442Q1420.164393803471 545.5743926241499 1425.7669615722293 543.517199771559Q1431.3476443106408 541.460006918968 1438.2851989305489 541.460006918968L1438.2851989305489 541.460006918968Q1446.9516709478467 541.460006918968 1453.7360303553276 544.6114512888946L1453.7360303553276 544.6114512888946L1453.7360303553276 543.210809346705Q1453.7360303553276 538.4836427918151 1455.9245333899987 535.3978535129288Q1458.1349214550166 532.333949264389 1463.1903634651073 532.333949264389L1463.1903634651073 532.333949264389L1475.3146702771858 532.333949264389L1475.3146702771858 543.3640045591319L1459.863838852407 543.3640045591319L1459.863838852407 548.5507567513027Q1464.284614982443 552.336867001284 1466.7357383812746 557.6111593148416Q1469.1649767497597 562.907336658746 1469.1649767497597 569.5166158234531L1469.1649767497597 569.5166158234531Q1469.1649767497597 575.6663093508791 1466.9545886847418 580.85306154305Q1464.7660856500704 586.0616987655676 1460.7392400662754 589.760268894162Q1456.7123944824805 593.4588390227561 1451.044171622682 595.5160318753472Q1445.3759487628834 597.5732247279382 1438.4383941429758 597.5732247279382L1438.4383941429758 597.5732247279382Q1434.4990886805674 597.5732247279382 1430.5597832181593 596.7853636354564L1430.5597832181593 596.7853636354564Q1426.4672825433242 597.8796151527922 1423.1626429609707 600.0024630964233Q1419.8580033786168 602.1253110400544 1419.8580033786168 605.9114212900356L1419.8580033786168 605.9114212900356Q1419.8580033786168 609.5443363275897 1423.3158381733977 610.7917830573524Q1426.773672968178 612.0611148174617 1432.2887006155495 612.0611148174617L1432.2887006155495 612.0611148174617L1449.6216446501455 612.0611148174617Q1464.7660856500704 612.0611148174617 1471.6161001485914 617.816877798647Q1478.4661146471124 623.5726407798322 1478.4661146471124 633.6397547393199ZM1466.6481982598877 634.6026960745753L1466.6481982598877 634.6026960745753Q1466.6481982598877 629.7004492769117 1462.9496281312934 626.7897402407989Q1459.251058002699 623.8790312046863 1449.7967248929192 623.8790312046863L1449.7967248929192 623.8790312046863L1422.6811722933428 623.8790312046863Q1415.1308368237273 627.3368659994667 1415.1308368237273 634.9090864994291L1415.1308368237273 634.9090864994291Q1415.1308368237273 640.2709189343736 1419.1357973771755 644.0570291843549Q1423.1626429609707 647.8212544039893 1432.7701712831772 647.8212544039893L1432.7701712831772 647.8212544039893L1444.4348924579747 647.8212544039893Q1454.98347708509 647.8212544039893 1460.8267801876623 644.5166148216358Q1466.6481982598877 641.2119752392823 1466.6481982598877 634.6026960745753ZM1438.4383941429758 587.4842257381038L1438.4383941429758 587.4842257381038Q1446.470200280219 587.4842257381038 1451.1973668351088 583.6105753667357Q1455.9245333899987 579.7588100257144 1455.9245333899987 571.727003888471L1455.9245333899987 571.727003888471L1455.9245333899987 567.3062277584352Q1455.9245333899987 559.2744216211918 1451.1973668351088 555.4226562801705Q1446.470200280219 551.5490059088024 1438.4383941429758 551.5490059088024L1438.4383941429758 551.5490059088024Q1430.4065880057321 551.5490059088024 1425.6794214508425 555.4226562801705Q1420.9522548959524 559.2744216211918 1420.9522548959524 567.3062277584352L1420.9522548959524 567.3062277584352L1420.9522548959524 571.727003888471Q1420.9522548959524 579.7588100257144 1425.6794214508425 583.6105753667357Q1430.4065880057321 587.4842257381038 1438.4383941429758 587.4842257381038ZM1493.1290849794098 624.6668922971678L1493.1290849794098 508.06345060988514L1505.7348624591157 508.06345060988514L1505.7348624591157 556.6044479188929L1506.3476433088238 556.6044479188929Q1509.3458924663234 549.6668932989851 1514.7952650226546 545.5743926241499Q1520.2227525486394 541.460006918968 1529.370695233565 541.460006918968L1529.370695233565 541.460006918968Q1541.9764727132713 541.460006918968 1549.2860728490732 549.5793531775983Q1556.617558015222 557.6986994362285 1556.617558015222 572.5148649809526L1556.617558015222 572.5148649809526L1556.617558015222 624.6668922971678L1544.0117805355155 624.6668922971678L1544.0117805355155 574.7252530459705Q1544.0117805355155 552.8183376689117 1525.584584983584 552.8183376689117L1525.584584983584 552.8183376689117Q1521.7984747336027 552.8183376689117 1518.2530998174352 553.7593939738204Q1514.7077249012677 554.7004502787289 1511.8626709561952 556.6044479188929Q1509.0395020414692 558.4865605287101 1507.376239735119 561.3972695648229Q1505.7348624591157 564.3079786009356 1505.7348624591157 568.2472840633438L1505.7348624591157 568.2472840633438L1505.7348624591157 624.6668922971678L1493.1290849794098 624.6668922971678ZM1659.8273611303168 626.5490049069851L1659.8273611303168 626.5490049069851Q1638.883387088513 626.5490049069851 1627.2186659137153 612.3018501512754Q1615.5539447389178 598.0328103652191 1615.5539447389178 570.3044769159346L1615.5539447389178 570.3044769159346Q1615.5539447389178 542.5761434666504 1627.2186659137153 527.6724378005392Q1638.883387088513 512.7906171647751 1659.8273611303168 512.7906171647751L1659.8273611303168 512.7906171647751Q1673.702470370132 512.7906171647751 1683.0692633585252 519.093505904628Q1692.4579413772644 525.3963946444812 1697.6446935694355 536.9079206068518L1697.6446935694355 536.9079206068518L1686.942913729893 543.3640045591319Q1683.616389117193 534.850727754261 1676.8539147400586 529.7296306531302Q1670.069555332578 524.6085335519996 1659.8273611303168 524.6085335519996L1659.8273611303168 524.6085335519996Q1652.7366112979819 524.6085335519996 1647.1559285595702 527.2785072542986Q1641.553360790812 529.970365986944 1637.7015954497906 534.9382678756479Q1633.8279450784225 539.8842847340047 1631.7926372561783 546.7561842628724Q1629.7354444035875 553.6061987613933 1629.7354444035875 562.1194755662643L1629.7354444035875 562.1194755662643L1629.7354444035875 578.4894782656052Q1629.7354444035875 595.5160318753472 1637.6140553284038 605.1235601975538Q1645.49266625322 614.7310885197605 1659.8273611303168 614.7310885197605L1659.8273611303168 614.7310885197605Q1670.3978307877787 614.7310885197605 1677.4885806201135 609.303600993776Q1684.5793304524482 603.8761134677914 1687.8839700348017 594.8813659952925L1687.8839700348017 594.8813659952925L1698.4325546619168 601.5125301903463Q1693.2458024697462 613.1553663347972 1683.4631939047658 619.8521856208911Q1673.702470370132 626.5490049069851 1659.8273611303168 626.5490049069851ZM1748.396078943461 626.5490049069851L1748.396078943461 626.5490049069851Q1740.1891925634438 626.5490049069851 1733.42671818631 623.5726407798322Q1726.642358778829 620.5743916223328 1721.8276521025525 614.9718238535743Q1717.0348304566223 609.3911411151628 1714.3429717239767 601.5781852813864Q1711.6729980216778 593.787114477957 1711.6729980216778 584.0045059129766L1711.6729980216778 584.0045059129766Q1711.6729980216778 574.3969775907699 1714.3429717239767 566.5183666659535Q1717.0348304566223 558.6397557411372 1721.8276521025525 553.0590730027254Q1726.642358778829 547.4565052339672 1733.42671818631 544.4582560764676Q1740.1891925634438 541.460006918968 1748.396078943461 541.460006918968L1748.396078943461 541.460006918968Q1756.5810802931314 541.460006918968 1763.2778995792253 544.4582560764676Q1769.9747188653193 547.4565052339672 1774.8550806326361 553.0590730027254Q1779.735442399953 558.6397557411372 1782.4273011325986 566.5183666659535Q1785.0972748348975 574.3969775907699 1785.0972748348975 584.0045059129766L1785.0972748348975 584.0045059129766Q1785.0972748348975 593.787114477957 1782.4273011325986 601.5781852813864Q1779.735442399953 609.3911411151628 1774.8550806326361 614.9718238535743Q1769.9747188653193 620.5743916223328 1763.2778995792253 623.5726407798322Q1756.5810802931314 626.5490049069851 1748.396078943461 626.5490049069851ZM1748.396078943461 615.3657543998152L1748.396078943461 615.3657543998152Q1758.6382731457222 615.3657543998152 1765.0943570980023 609.062865659962Q1771.5504410502824 602.759976920109 1771.5504410502824 589.8478090155488L1771.5504410502824 589.8478090155488L1771.5504410502824 578.1830878407511Q1771.5504410502824 565.2709199361909 1765.0943570980023 558.9680311963377Q1758.6382731457222 552.6651424564847 1748.396078943461 552.6651424564847L1748.396078943461 552.6651424564847Q1738.1538847411996 552.6651424564847 1731.6759157585727 558.9680311963377Q1725.2198318062926 565.2709199361909 1725.2198318062926 578.1830878407511L1725.2198318062926 578.1830878407511L1725.2198318062926 589.8478090155488Q1725.2198318062926 602.759976920109 1731.6759157585727 609.062865659962Q1738.1538847411996 615.3657543998152 1748.396078943461 615.3657543998152ZM1818.515716174327 624.6668922971678L1805.9099386946207 624.6668922971678L1805.9099386946207 543.3640045591319L1818.515716174327 543.3640045591319L1818.515716174327 556.6044479188929L1819.128497024035 556.6044479188929Q1822.1267461815344 549.6668932989851 1827.576118737866 545.5743926241499Q1833.0036062638503 541.460006918968 1842.1515489487763 541.460006918968L1842.1515489487763 541.460006918968Q1854.7573264284827 541.460006918968 1862.0669265642844 549.5793531775983Q1869.3984117304328 557.6986994362285 1869.3984117304328 572.5148649809526L1869.3984117304328 572.5148649809526L1869.3984117304328 624.6668922971678L1856.792634250727 624.6668922971678L1856.792634250727 574.7252530459705Q1856.792634250727 552.8183376689117 1838.3654386987948 552.8183376689117L1838.3654386987948 552.8183376689117Q1834.5793284488138 552.8183376689117 1831.0339535326464 553.7593939738204Q1827.488578616479 554.7004502787289 1824.6435246714066 556.6044479188929Q1821.8203557566806 558.4865605287101 1820.1570934503304 561.3972695648229Q1818.515716174327 564.3079786009356 1818.515716174327 568.2472840633438L1818.515716174327 568.2472840633438L1818.515716174327 624.6668922971678ZM1919.8215216492579 626.5490049069851L1919.8215216492579 626.5490049069851Q1908.4850759296612 626.5490049069851 1900.8472003386585 622.2157688983361Q1893.187439717309 617.8825328896871 1887.6724120699375 610.6385878449253L1887.6724120699375 610.6385878449253L1896.6671595424361 603.3946428001636Q1901.3943260973263 609.3911411151628 1907.2157441695515 612.6082405761294Q1913.059047272124 615.8472250674429 1920.7625779541665 615.8472250674429L1920.7625779541665 615.8472250674429Q1928.8162691217565 615.8472250674429 1933.3027003428326 612.3675052423157Q1937.7891315639088 608.9096704475351 1937.7891315639088 602.6067817076819L1937.7891315639088 602.6067817076819Q1937.7891315639088 597.8796151527922 1934.7252273153692 594.4874354490516Q1931.6394380364825 591.0952557453113 1923.6076318992393 589.8478090155488L1923.6076318992393 589.8478090155488L1917.1515479469592 588.9067527106401Q1911.4833250871604 588.1188916181584 1906.7561585322708 586.4556293118083Q1902.0289919773807 584.7923670054581 1898.4836170612136 582.0348531817724Q1894.9382421450462 579.2773393580867 1892.9685894138422 575.1848386832514Q1890.9989366826378 571.0923380084164 1890.9989366826378 565.4241151486178L1890.9989366826378 565.4241151486178Q1890.9989366826378 559.4276168336187 1893.187439717309 554.9411856125428Q1895.3978277823273 550.4547543914667 1899.271478153695 547.4565052339672Q1903.1232434947162 544.4582560764676 1908.4850759296612 542.9700740128911Q1913.8469083646053 541.460006918968 1919.9747168616852 541.460006918968L1919.9747168616852 541.460006918968Q1929.910520639092 541.460006918968 1936.6073399251861 544.9397267440952Q1943.3041592112802 548.3975615388758 1948.3377161910241 554.5472550663019L1948.3377161910241 554.5472550663019L1939.9995196289267 562.1194755662643Q1937.3076608962808 558.3333653162831 1932.12090870411 555.2475760373967Q1926.9122714815928 552.183671788857 1919.0336605567766 552.183671788857L1919.0336605567766 552.183671788857Q1911.1550496319599 552.183671788857 1907.1500890785117 555.5758514925974Q1903.1232434947162 558.9680311963377 1903.1232434947162 564.7894492685632L1903.1232434947162 564.7894492685632Q1903.1232434947162 570.7859475835623 1907.1500890785117 573.4559212858612Q1911.1550496319599 576.1258949881601 1918.7272701319223 577.3952267482694L1918.7272701319223 577.3952267482694L1925.0301588717755 578.336283053178Q1938.57699265639 580.393475905769 1944.2452155161889 586.1492388869544Q1949.9134383759872 591.8831168377928 1949.9134383759872 601.1842547351457L1949.9134383759872 601.1842547351457Q1949.9134383759872 613.0021711223703 1941.881632238744 619.786530529851Q1933.8498261015004 626.5490049069851 1919.8215216492579 626.5490049069851ZM2004.757324424848 624.6668922971678L1989.0001025752151 624.6668922971678Q1982.3908234105081 624.6668922971678 1978.998643706768 620.9683221685734Q1975.6064640030274 617.269752039979 1975.6064640030274 611.2732537249799L1975.6064640030274 611.2732537249799L1975.6064640030274 554.394059853875L1962.2128254308393 554.394059853875L1962.2128254308393 543.3640045591319L1969.7850459308017 543.3640045591319Q1973.877546605637 543.3640045591319 1975.3657286692135 541.7007422527819Q1976.8757957631367 540.0593649767784 1976.8757957631367 535.9449792715966L1976.8757957631367 535.9449792715966L1976.8757957631367 520.8224233020184L1988.2122414827338 520.8224233020184L1988.2122414827338 543.3640045591319L2006.0266561849573 543.3640045591319L2006.0266561849573 554.394059853875L1988.2122414827338 554.394059853875L1988.2122414827338 613.636837002425L2004.757324424848 613.636837002425L2004.757324424848 624.6668922971678ZM2038.9417418264127 624.6668922971678L2026.3359643467063 624.6668922971678L2026.3359643467063 543.3640045591319L2038.9417418264127 543.3640045591319L2038.9417418264127 558.3333653162831L2039.7296029188944 558.3333653162831Q2041.9399909839124 552.490062213711 2047.6082138437107 547.9379759015949Q2053.298321733856 543.3640045591319 2063.212240480916 543.3640045591319L2063.212240480916 543.3640045591319L2068.0926022482336 543.3640045591319L2068.0926022482336 555.9697820388383L2060.695461991045 555.9697820388383Q2050.4532677887837 555.9697820388383 2044.697504807598 559.8215473798596Q2038.9417418264127 563.6951977512276 2038.9417418264127 569.5166158234531L2038.9417418264127 569.5166158234531L2038.9417418264127 624.6668922971678ZM2134.2729340166907 624.6668922971678L2134.2729340166907 611.426448937407L2133.660153166983 611.426448937407Q2132.3908214068733 614.2715028824796 2130.5743638880967 617.0290167061653Q2128.7579063693192 619.786530529851 2126.087932667021 621.9093784734821Q2123.417958964722 624.0322264171132 2119.631848714741 625.3015581772224Q2115.845738464759 626.5490049069851 2110.8121814850156 626.5490049069851L2110.8121814850156 626.5490049069851Q2098.206404005309 626.5490049069851 2090.787378717774 618.4515436787017Q2083.3902384605854 610.3321974200715 2083.3902384605854 595.5160318753472L2083.3902384605854 595.5160318753472L2083.3902384605854 543.3640045591319L2095.9960159402917 543.3640045591319L2095.9960159402917 593.3056438103292Q2095.9960159402917 615.2125591873883 2114.5764067046503 615.2125591873883L2114.5764067046503 615.2125591873883Q2118.3625169546312 615.2125591873883 2121.9078918707983 614.2715028824796Q2125.453266786966 613.3304465775709 2128.2107806106515 611.426448937407Q2130.9682944343376 609.5443363275897 2132.6315567406873 606.6336272914771Q2134.2729340166907 603.7010332250175 2134.2729340166907 599.6085325501824L2134.2729340166907 599.6085325501824L2134.2729340166907 543.3640045591319L2146.878711496397 543.3640045591319L2146.878711496397 624.6668922971678L2134.2729340166907 624.6668922971678ZM2203.932985610276 626.5490049069851L2203.932985610276 626.5490049069851Q2195.419708805405 626.5490049069851 2188.635349397924 623.5726407798322Q2181.87287502079 620.5743916223328 2177.2113635569403 615.0593639749611Q2172.5717371234377 609.5443363275897 2170.1206137246054 601.6657254027734Q2167.6913753561203 593.787114477957 2167.6913753561203 584.0045059129766L2167.6913753561203 584.0045059129766Q2167.6913753561203 574.243782378343 2170.1206137246054 566.3651714535265Q2172.5717371234377 558.4865605287101 2177.2113635569403 552.9715328813386Q2181.87287502079 547.4565052339672 2188.635349397924 544.4582560764676Q2195.419708805405 541.460006918968 2203.932985610276 541.460006918968L2203.932985610276 541.460006918968Q2216.0572924223543 541.460006918968 2223.388777588503 546.7561842628724Q2230.720262754652 552.03047657643 2234.33129276186 560.543753381301L2234.33129276186 560.543753381301L2223.782708134744 565.8837007858988Q2221.5723200697257 559.5808120460458 2216.5387630899822 556.1229772512652Q2211.4833210798915 552.6651424564847 2203.932985610276 552.6651424564847L2203.932985610276 552.6651424564847Q2198.2647627504775 552.6651424564847 2193.9971818328686 554.459714944915Q2189.751485945607 556.2761724636922 2186.9064320005336 559.5151569550055Q2184.0832630858085 562.7322564159723 2182.660736113272 567.2405726673951Q2181.2382091407353 571.727003888471 2181.2382091407353 577.0888363234155L2181.2382091407353 577.0888363234155L2181.2382091407353 590.9420605328844Q2181.2382091407353 601.6657254027734 2186.9939721219207 608.5157399012942Q2192.749735103106 615.3657543998152 2203.932985610276 615.3657543998152L2203.932985610276 615.3657543998152Q2219.2087367922813 615.3657543998152 2225.9930961997616 601.1842547351457L2225.9930961997616 601.1842547351457L2235.1191538543408 607.3339482625718Q2231.179848391933 616.1536154922969 2223.388777588503 621.3622527148143Q2215.5977067850736 626.5490049069851 2203.932985610276 626.5490049069851ZM2286.658400320848 624.6668922971678L2270.9011784712156 624.6668922971678Q2264.2700142761614 624.6668922971678 2260.8997196027676 620.9683221685734Q2257.5075398990275 617.269752039979 2257.5075398990275 611.2732537249799L2257.5075398990275 611.2732537249799L2257.5075398990275 554.394059853875L2244.1139013268394 554.394059853875L2244.1139013268394 543.3640045591319L2251.664236796455 543.3640045591319Q2255.778622501637 543.3640045591319 2257.2668045652135 541.7007422527819Q2258.75498662879 540.0593649767784 2258.75498662879 535.9449792715966L2258.75498662879 535.9449792715966L2258.75498662879 520.8224233020184L2270.113317378734 520.8224233020184L2270.113317378734 543.3640045591319L2287.9058470506106 543.3640045591319L2287.9058470506106 554.394059853875L2270.113317378734 554.394059853875L2270.113317378734 613.636837002425L2286.658400320848 613.636837002425L2286.658400320848 624.6668922971678ZM2314.53992898256 524.3021431271457L2314.53992898256 524.3021431271457Q2310.4474283077243 524.3021431271457 2308.6309707889477 522.3324903959415Q2306.81451327017 520.3628376647374 2306.81451327017 517.2113932948109L2306.81451327017 517.2113932948109L2306.81451327017 515.1542004422199Q2306.81451327017 512.0027560722933 2308.6309707889477 510.03310334108926Q2310.4474283077243 508.06345060988514 2314.53992898256 508.06345060988514L2314.53992898256 508.06345060988514Q2318.632429657395 508.06345060988514 2320.4488871761723 510.03310334108926Q2322.265344694949 512.0027560722933 2322.265344694949 515.1542004422199L2322.265344694949 515.1542004422199L2322.265344694949 517.2113932948109Q2322.265344694949 520.3628376647374 2320.4488871761723 522.3324903959415Q2318.632429657395 524.3021431271457 2314.53992898256 524.3021431271457ZM2308.237040242707 624.6668922971678L2308.237040242707 543.3640045591319L2320.8428177224123 543.3640045591319L2320.8428177224123 624.6668922971678L2308.237040242707 624.6668922971678ZM2378.3566774735727 626.5490049069851L2378.3566774735727 626.5490049069851Q2370.171676123902 626.5490049069851 2363.387316716422 623.5726407798322Q2356.624842339287 620.5743916223328 2351.8101356630104 614.9718238535743Q2346.9954289867337 609.3911411151628 2344.3254552844355 601.5781852813864Q2341.6554815821364 593.787114477957 2341.6554815821364 584.0045059129766L2341.6554815821364 584.0045059129766Q2341.6554815821364 574.3969775907699 2344.3254552844355 566.5183666659535Q2346.9954289867337 558.6397557411372 2351.8101356630104 553.0590730027254Q2356.624842339287 547.4565052339672 2363.387316716422 544.4582560764676Q2370.171676123902 541.460006918968 2378.3566774735727 541.460006918968L2378.3566774735727 541.460006918968Q2386.5635638535896 541.460006918968 2393.2603831396837 544.4582560764676Q2399.9572024257777 547.4565052339672 2404.8375641930943 553.0590730027254Q2409.717925960411 558.6397557411372 2412.38789966271 566.5183666659535Q2415.0797583953554 574.3969775907699 2415.0797583953554 584.0045059129766L2415.0797583953554 584.0045059129766Q2415.0797583953554 593.787114477957 2412.38789966271 601.5781852813864Q2409.717925960411 609.3911411151628 2404.8375641930943 614.9718238535743Q2399.9572024257777 620.5743916223328 2393.2603831396837 623.5726407798322Q2386.5635638535896 626.5490049069851 2378.3566774735727 626.5490049069851ZM2378.3566774735727 615.3657543998152L2378.3566774735727 615.3657543998152Q2388.598871675834 615.3657543998152 2395.054955628114 609.062865659962Q2401.5329246107403 602.759976920109 2401.5329246107403 589.8478090155488L2401.5329246107403 589.8478090155488L2401.5329246107403 578.1830878407511Q2401.5329246107403 565.2709199361909 2395.054955628114 558.9680311963377Q2388.598871675834 552.6651424564847 2378.3566774735727 552.6651424564847L2378.3566774735727 552.6651424564847Q2368.1144832713117 552.6651424564847 2361.6583993190316 558.9680311963377Q2355.2023153667506 565.2709199361909 2355.2023153667506 578.1830878407511L2355.2023153667506 578.1830878407511L2355.2023153667506 589.8478090155488Q2355.2023153667506 602.759976920109 2361.6583993190316 609.062865659962Q2368.1144832713117 615.3657543998152 2378.3566774735727 615.3657543998152ZM2448.4763147044387 624.6668922971678L2435.8705372247323 624.6668922971678L2435.8705372247323 543.3640045591319L2448.4763147044387 543.3640045591319L2448.4763147044387 556.6044479188929L2449.1109805844935 556.6044479188929Q2452.1092297419927 549.6668932989851 2457.536717267977 545.5743926241499Q2462.9860898243087 541.460006918968 2472.112147478888 541.460006918968L2472.112147478888 541.460006918968Q2484.7179249585943 541.460006918968 2492.0494101247423 549.5793531775983Q2499.380895290891 557.6986994362285 2499.380895290891 572.5148649809526L2499.380895290891 572.5148649809526L2499.380895290891 624.6668922971678L2486.775117811185 624.6668922971678L2486.775117811185 574.7252530459705Q2486.775117811185 552.8183376689117 2468.326037228907 552.8183376689117L2468.326037228907 552.8183376689117Q2464.561812009272 552.8183376689117 2461.016437093105 553.7593939738204Q2457.4710621769373 554.7004502787289 2454.626008231865 556.6044479188929Q2451.7809542867917 558.4865605287101 2450.1395770107893 561.3972695648229Q2448.4763147044387 564.3079786009356 2448.4763147044387 568.2472840633438L2448.4763147044387 568.2472840633438L2448.4763147044387 624.6668922971678ZM2623.8629479029905 624.6668922971678L2563.832309661959 624.6668922971678L2563.832309661959 514.6727297745922L2577.050867991373 514.6727297745922L2577.050867991373 613.0021711223703L2623.8629479029905 613.0021711223703L2623.8629479029905 624.6668922971678ZM2673.651391941761 624.6668922971678L2657.8941700921278 624.6668922971678Q2651.2848909274207 624.6668922971678 2647.8927112236806 620.9683221685734Q2644.5005315199405 617.269752039979 2644.5005315199405 611.2732537249799L2644.5005315199405 611.2732537249799L2644.5005315199405 554.394059853875L2631.1068929477524 554.394059853875L2631.1068929477524 543.3640045591319L2638.6791134477144 543.3640045591319Q2642.77161412255 543.3640045591319 2644.2597961861256 541.7007422527819Q2645.7698632800493 540.0593649767784 2645.7698632800493 535.9449792715966L2645.7698632800493 535.9449792715966L2645.7698632800493 520.8224233020184L2657.106308999646 520.8224233020184L2657.106308999646 543.3640045591319L2674.92072370187 543.3640045591319L2674.92072370187 554.394059853875L2657.106308999646 554.394059853875L2657.106308999646 613.636837002425L2673.651391941761 613.636837002425L2673.651391941761 624.6668922971678ZM2746.6160831176994 624.6668922971678L2746.6160831176994 611.426448937407L2745.9814172376446 611.426448937407Q2738.5623919501095 626.5490049069851 2722.1923892507684 626.5490049069851L2722.1923892507684 626.5490049069851Q2714.6201687508064 626.5490049069851 2708.47047522338 623.5726407798322Q2702.320781695954 620.5743916223328 2697.987545687305 615.0593639749611Q2693.6543096786563 609.5443363275897 2691.378266522598 601.6657254027734Q2689.10222336654 593.787114477957 2689.10222336654 584.0045059129766L2689.10222336654 584.0045059129766Q2689.10222336654 574.243782378343 2691.378266522598 566.3651714535265Q2693.6543096786563 558.4865605287101 2697.987545687305 552.9715328813386Q2702.320781695954 547.4565052339672 2708.47047522338 544.4582560764676Q2714.6201687508064 541.460006918968 2722.1923892507684 541.460006918968L2722.1923892507684 541.460006918968Q2730.683781025293 541.460006918968 2736.767819461679 545.1804620779092Q2742.8299728677184 548.8790322065034 2745.9814172376446 556.6044479188929L2745.9814172376446 556.6044479188929L2746.6160831176994 556.6044479188929L2746.6160831176994 508.06345060988514L2759.221860597406 508.06345060988514L2759.221860597406 624.6668922971678L2746.6160831176994 624.6668922971678ZM2725.6502240455493 615.2125591873883L2725.6502240455493 615.2125591873883Q2729.895919932811 615.2125591873883 2733.769570304179 614.1183076700527Q2737.621335645201 613.0021711223703 2740.466389590273 610.8793231787392Q2743.289558504999 608.7564752351082 2744.952820811349 605.6706859562216Q2746.6160831176994 602.6067817076819 2746.6160831176994 598.6674762452737L2746.6160831176994 598.6674762452737L2746.6160831176994 568.4223643061175Q2746.6160831176994 565.0958396934172 2744.952820811349 562.1851306573045Q2743.289558504999 559.2744216211918 2740.466389590273 557.2172287686008Q2737.621335645201 555.1819209463565 2733.769570304179 554.0001293076341Q2729.895919932811 552.8183376689117 2725.6502240455493 552.8183376689117L2725.6502240455493 552.8183376689117Q2714.9265591756603 552.8183376689117 2708.7987506785803 559.5151569550055Q2702.649057151154 566.2119762410996 2702.649057151154 577.0888363234155L2702.649057151154 577.0888363234155L2702.649057151154 590.9420605328844Q2702.649057151154 601.8189206152003 2708.7987506785803 608.5157399012942Q2714.9265591756603 615.2125591873883 2725.6502240455493 615.2125591873883Z " fill="#f2f2f2" transform="matrix(0.3171184176121293,0,0,0.3171184176121293,0,115.09985107659412)"/></g></svg>